<?xml version="1.0" ?>
<!-- Uploaded to: SVG Repo, www.svgrepo.com, Generator: SVG Repo Mixer Tools -->
<svg fill="#000000" width="800px" height="800px" viewBox="0 0 32 32" xmlns="http://www.w3.org/2000/svg">
<title/>
<g data-name="Layer 20" id="Layer_20">
<path d="M25.67,6.67a.34.34,0,0,1-.34-.34,2.33,2.33,0,1,0-4.66,0,.34.34,0,0,1-.34.34,2.33,2.33,0,1,0,0,4.66.34.34,0,0,1,.34.34,2.33,2.33,0,1,0,4.66,0,.34.34,0,0,1,.34-.34,2.33,2.33,0,0,0,0-4.66Z"/>
<path d="M22,26H10a4,4,0,0,1-4-4V10a4,4,0,0,1,4-4h7a1,1,0,0,1,0,2H10a2,2,0,0,0-2,2V22a2,2,0,0,0,2,2H22a2,2,0,0,0,2-2V15a1,1,0,0,1,2,0v7A4,4,0,0,1,22,26Z"/>
<path d="M28,15a1,1,0,0,1-1-1V12a1,1,0,0,1,2,0v2A1,1,0,0,1,28,15Z"/>
<path d="M29,14H27a1,1,0,0,1,0-2h2a1,1,0,0,1,0,2Z"/>
<path d="M19,6a1,1,0,0,1-1-1V3a1,1,0,0,1,2,0V5A1,1,0,0,1,19,6Z"/>
<path d="M20,5H18a1,1,0,0,1,0-2h2a1,1,0,0,1,0,2Z"/>
<path d="M12,17a1,1,0,0,1-1-1V14a1,1,0,0,1,2,0v2A1,1,0,0,1,12,17Z"/>
<path d="M20,17a1,1,0,0,1-1-1V14a1,1,0,0,1,2,0v2A1,1,0,0,1,20,17Z"/>
<path d="M16,22a4.68,4.68,0,0,1-3.89-2.55,1,1,0,0,1,1.78-.9A2.75,2.75,0,0,0,16,20a2.75,2.75,0,0,0,2.11-1.45,1,1,0,1,1,1.78.9A4.68,4.68,0,0,1,16,22Z"/>
<path d="M24,20.69c-.12,0-2.27,1.42-7.35,1.42C7.94,22.11,8,17.79,8,16.38l-.42,5.79C7.58,23.82,8.34,25,10,25H23C24.62,25,24.75,22.21,24,20.69Z"/>
</g>
</svg>